<svg xmlns="http://www.w3.org/2000/svg" viewBox="0 0 24 24">
  <g>
    <path d="M9 19c0 .84.13 1.66.37 2.42C5.53 20.09 2.63 16.56 2.33 12.43 2.03 8.04 4.56 3.94 8.65 2.22c1.06-.44 1.6-.12 1.83.11.22.22.53.75.09 1.76A9.3 9.3 0 0 0 9.9 7.37c.01 2.04.81 3.93 2.11 5.38C10.18 14.21 9 16.47 9 19z" fill="#a9a9a9"/>
    
    <path d="M21.21 17.72c-1.98 2.69-5.12 4.27-8.47 4.27-.16 0-.32-.01-.48-.02-1-.04-1.97-.23-2.89-.55C9.13 20.66 9 19.84 9 19c0-2.53 1.18-4.79 3.01-6.25 1.47 1.65 3.58 2.72 5.91 2.82.63.03 1.26-.02 1.88-.13 1.12-.2 1.57.22 1.73.49.17.27.35.86-.32 1.79z"
      fill="#a9a9a9" opacity="0.4"/>
  </g>
</svg>